<svg xmlns="http://www.w3.org/2000/svg" width="173" height="28" viewBox="0 0 173 28" fill="none"><path fill-rule="evenodd" clip-rule="evenodd" d="M101.542 24.3659L102.663 27.4631H103.672L99.8959 17.3517H98.9432L95.1602 27.4631H96.176L97.2968 24.3659H101.542ZM97.5841 23.5391L99.3985 18.5359H99.4405L101.255 23.5391H97.5841Z" fill="white"></path><path fill-rule="evenodd" clip-rule="evenodd" d="M122.97 17.3517H119.53V27.4631H120.483V23.6512H122.963C124.89 23.6512 126.214 22.3759 126.214 20.4979C126.214 18.62 124.904 17.3517 122.97 17.3517ZM120.483 22.7963V18.2065H122.746C124.308 18.2065 125.233 19.0614 125.233 20.4979C125.233 21.9344 124.301 22.7963 122.746 22.7963H120.483Z" fill="white"></path><path fill-rule="evenodd" clip-rule="evenodd" d="M145.52 17.3517H142.08V27.4631H143.033V23.6512H145.513C147.439 23.6512 148.763 22.3759 148.763 20.4979C148.763 18.62 147.453 17.3517 145.52 17.3517ZM143.033 22.7963V18.2065H145.296C146.858 18.2065 147.783 19.0614 147.783 20.4979C147.783 21.9344 146.851 22.7963 145.296 22.7963H143.033Z" fill="white"></path><path d="M164.625 24.7629H165.585C165.704 25.9751 166.832 26.7529 168.415 26.7529C169.935 26.7529 171.021 25.9471 171.021 24.7979C171.021 23.8449 170.391 23.2703 168.835 22.9129L167.735 22.6677C165.725 22.2192 164.884 21.3573 164.884 19.9629C164.884 18.3302 166.355 17.188 168.338 17.188C170.307 17.188 171.757 18.3582 171.813 19.9839H170.853C170.755 18.8277 169.753 18.0569 168.317 18.0569C166.951 18.0569 165.865 18.7716 165.865 19.9208C165.865 20.8388 166.488 21.4204 167.988 21.7567L169.088 22.009C171.168 22.4785 172.002 23.2703 172.002 24.6718C172.002 26.4656 170.559 27.6218 168.366 27.6218C166.208 27.6218 164.73 26.4726 164.625 24.7629Z" fill="white"></path><path fill-rule="evenodd" clip-rule="evenodd" d="M13.8617 0.000341415V7.43866e-05L0 27.9457L3.45077 27.9454L13.8557 6.68612L13.8557 6.70749L24.2536 27.9524L27.7012 27.9457L13.8617 0.000341415ZM54.7868 0.380455L56.0206 2.65989L56.6068 3.48792C56.664 3.48478 56.8285 3.47784 57.0139 3.48923H63.1664C67.1641 3.48923 69.6041 4.77781 69.6041 8.41469C69.6041 11.6073 66.8727 12.9701 63.5346 13.2729L63.5602 13.3089H63.0547C62.7042 13.33 62.3483 13.3401 61.9894 13.3402L62.0332 13.4204L62.5363 14.3113L62.5192 14.3114L63.7696 16.6036L70.0909 27.9133H73.2543L66.6881 15.7239C70.3621 14.7719 72.8439 12.2995 72.8439 8.41509C72.8439 3.5215 69.5695 0.380455 63.5602 0.380455H54.7868ZM39.8258 27.9133H42.8716V0.418758H39.8258V27.9133Z" fill="white"></path></svg>