<svg xmlns="http://www.w3.org/2000/svg" viewBox="5916.512 -2380.12 15.488 15.488">
  <g id="Group_876" data-name="Group 876" transform="translate(5182 -2409)">
    <path id="Path_37" data-name="Path 37" d="M11.214,0H4.274A4.279,4.279,0,0,0,0,4.274v6.94a4.279,4.279,0,0,0,4.274,4.274h6.94a4.279,4.279,0,0,0,4.274-4.274V4.274A4.279,4.279,0,0,0,11.214,0Zm2.9,11.214a2.9,2.9,0,0,1-2.9,2.9H4.274a2.9,2.9,0,0,1-2.9-2.9V4.274a2.9,2.9,0,0,1,2.9-2.9h6.94a2.9,2.9,0,0,1,2.9,2.9v6.94Z" transform="translate(734.512 28.88)"/>
    <path id="Path_38" data-name="Path 38" d="M44.959,40.97a3.991,3.991,0,1,0,3.991,3.991A4,4,0,0,0,44.959,40.97Zm0,6.607a2.617,2.617,0,1,1,2.617-2.617A2.62,2.62,0,0,1,44.959,47.577Z" transform="translate(697.297 -8.337)"/>
    <path id="Path_39" data-name="Path 39" d="M119.929,28.251a1.007,1.007,0,1,0,.713.295A1.012,1.012,0,0,0,119.929,28.251Z" transform="translate(626.486 3.217)"/>
  </g>
</svg>
