<svg xmlns="http://www.w3.org/2000/svg" viewBox="5837.559 -2377.916 21.416 13.204">
  <g id="Group_875" data-name="Group 875" transform="translate(5182 -2409)">
    <path id="Path_27" data-name="Path 27" d="M9.063,93.435a3.583,3.583,0,0,0,.57-2,3.635,3.635,0,0,0-3.651-3.544H.468A.468.468,0,0,0,0,88.356v12.127a.468.468,0,0,0,.468.468h6.16a4.135,4.135,0,0,0,2.436-7.515ZM2.419,90.307h3.61a1.186,1.186,0,1,1,0,2.371H2.419Zm4.262,8.224H2.419V95.1H6.681a1.717,1.717,0,0,1,0,3.433Z" transform="translate(655.558 -56.803)"/>
    <path id="Path_28" data-name="Path 28" d="M255.959,156.429A4.964,4.964,0,1,0,251,161.55a4.916,4.916,0,0,0,4.126-2.276,5.165,5.165,0,0,0,.313-.555.21.21,0,0,0-.189-.3l-2.439-.006a.206.206,0,0,0-.144.059,2.308,2.308,0,0,1-1.667.659,2.586,2.586,0,0,1-2.481-2.115h6.957a.486.486,0,0,0,.485-.486Zm-4.961-2.7a2.507,2.507,0,0,1,2.125,1.221h-4.25A2.507,2.507,0,0,1,251,153.727Z" transform="translate(421.015 -117.261)"/>
    <path id="Path_29" data-name="Path 29" d="M298.987,100.74h-4.4a.372.372,0,0,1-.372-.372v-1.1a.372.372,0,0,1,.372-.372h4.4a.372.372,0,0,1,.372.372v1.1A.372.372,0,0,1,298.987,100.74Z" transform="translate(375.088 -67.294)"/>
  </g>
</svg>
