<svg xmlns="http://www.w3.org/2000/svg" width="512" height="512" viewBox="0 0 512 512">
    <rect fill="rgb(194, 23, 91)" width="512" height="512" rx="180" ry="180"/>
    <path fill-rule="evenodd"  fill="rgb(255, 255, 255)"
          d="M392.118,278.7 L270.725,336.153 C261.140,340.743 249.990,340.730 240.416,336.119 L119.811,278.28 C107.700,272.195 100.0,259.938 100.0,246.496 L100.0,134.999 C100.0,115.670 115.669,100.0 135.0,100.0 L376.999,100.0 C396.329,100.0 411.999,115.670 411.999,135.0 L411.999,246.442 C411.999,259.914 404.269,272.188 392.118,278.7 ZM382.999,139.0 C382.999,133.477 378.523,129.0 372.999,129.0 L139.0,129.0 C133.477,129.0 129.0,133.477 129.0,139.0 L129.0,243.283 C129.0,247.118 131.192,250.615 134.644,252.286 L249.467,307.838 C253.593,309.835 258.406,309.835 262.532,307.838 L377.355,252.286 C380.807,250.615 382.999,247.118 382.999,243.283 L382.999,139.0 ZM331.999,221.999 L239.0,221.999 C230.715,221.999 223.999,215.284 223.999,207.0 C223.999,198.715 230.715,192.0 239.0,192.0 L331.999,192.0 C340.284,192.0 346.999,198.715 346.999,207.0 C346.999,215.284 340.284,221.999 331.999,221.999 ZM187.999,230.0 C174.745,230.0 164.0,219.254 164.0,205.999 C164.0,192.745 174.745,182.0 187.999,182.0 C201.254,182.0 212.0,192.745 212.0,205.999 C212.0,219.254 201.254,230.0 187.999,230.0 ZM178.999,381.999 L331.999,381.999 C340.284,381.999 346.999,388.715 346.999,396.999 C346.999,405.284 340.284,411.999 331.999,411.999 L178.999,411.999 C170.715,411.999 164.0,405.284 164.0,396.999 C164.0,388.715 170.715,381.999 178.999,381.999 Z"/>
</svg>