<?xml version="1.0" encoding="UTF-8"?>
<svg width="476px" height="111px" viewBox="0 0 476 111" version="1.1" xmlns="http://www.w3.org/2000/svg" xmlns:xlink="http://www.w3.org/1999/xlink">
    <title>Combined Shape Copy 3</title>
    <g id="Page-7" stroke="none" stroke-width="1" fill="none" fill-rule="evenodd">
        <path d="M52.2971429,0.0802250417 C72.8685714,9.92570995 96,31.5135163 96,64.0307142 C96,88.9605659 76.4342857,111 48,111 C17.6457143,111 0,89.5928447 0,64.0307142 C0,49.1269985 10.6971429,33.7716551 22.2171429,27.2682155 C22.7657143,26.9069133 23.4971429,27.2682155 23.4971429,27.9004943 C23.7714286,31.2425397 24.6857143,39.7331413 28.4342857,44.7010466 C28.5257143,44.7913721 28.7085714,44.7913721 28.8,44.7913721 C50.2857143,37.4750026 53.9428571,18.4163116 51.2,0.893154988 C51.2,0.260876141 51.7485714,-0.190751607 52.2971429,0.0802250417 Z M347.434239,4.14813684 L347.434239,108.290716 L328.482005,108.290716 L328.482005,100.389122 C322.451003,106.537005 314.427283,109.99946 305.976227,109.99946 C285.321025,109.99946 271.44307,93.9885248 271.44307,70.1587342 C271.44307,46.2749833 285.321025,30.2289734 305.976227,30.2289734 C314.303561,30.2289734 322.17724,33.5976055 328.12732,39.5958781 L328.482005,39.9589241 L328.482005,4.14813684 L347.434239,4.14813684 Z M390.806518,30.2286137 C412.953735,30.2286137 428.488935,46.901977 428.797425,70.8696988 L428.802103,71.5982165 L428.802103,76.7244499 L371.517153,76.7244499 C373.409643,87.431083 381.935415,94.2615641 393.630219,94.2615641 C400.876525,94.2615641 408.800741,91.2945376 413.507397,86.8481294 L413.803414,86.5623213 L414.960594,85.4192612 L423.93557,98.2141599 L423.097298,99.0100751 C415.641234,106.096868 404.594269,110 391.990122,110 C368.224202,110 351.626419,93.579865 351.626419,70.0693399 C351.723002,47.3538306 368.565889,30.2286137 390.806518,30.2286137 Z M144.252963,11.8825438 L144.252963,31.9369085 L159.287187,31.9369085 L159.287187,48.6646174 L144.161847,48.6646174 L144.161847,85.8073261 C144.161847,87.5169699 144.575516,93.0919735 149.902187,93.0919735 C152.484429,93.0919735 154.953451,92.0820539 155.958632,91.0668525 L156.068041,90.9497476 L157.672603,89.1231897 L162.48811,104.289646 L161.86214,104.86882 C158.34023,108.127703 153.090839,109.822404 146.253883,109.907169 L145.710827,109.910516 L145.452968,109.910516 C139.064789,109.910516 134.070693,108.195476 130.616466,104.811263 C127.182165,101.445178 125.396071,96.5571517 125.304444,90.2766936 L125.300729,89.7644185 L125.300729,48.6646174 L113,48.6646174 L113,31.9369085 L125.300729,31.9369085 L125.300729,11.8825438 L144.252963,11.8825438 Z M187.880692,32.0271122 L187.880692,108.201142 L168.928457,108.201142 L168.928457,32.0271122 L187.880692,32.0271122 Z M240.919403,30.2285237 C257.148247,30.2285237 266.158705,38.8992721 266.337292,54.6604395 L266.339998,55.1402194 L266.339998,108.201232 L247.388675,108.201232 L247.388675,59.5469814 L247.449723,59.5469814 C247.063389,50.9151238 242.839228,47.0461666 233.903432,47.0461666 C226.072117,47.0461666 219.661945,51.6400459 216.318305,55.8084501 L216.135712,56.0395585 L216.135712,108.201232 L197.183478,108.201232 L197.183478,32.0272021 L216.135712,32.0272021 L216.135712,40.0690932 C221.622748,34.9491552 230.3672,30.2285237 240.919403,30.2285237 Z M476,30.3185476 L476,49.1408175 L474.36537,48.8179548 C472.961264,48.5409583 471.289276,48.3952654 469.529817,48.3952654 C463.52885,48.3952654 455.240704,52.4611823 451.940277,56.9159582 L451.762097,57.1638225 L451.762097,108.111388 L432.810774,108.111388 L432.810774,32.0272921 L451.854125,32.0272921 L451.854125,40.5521283 C458.005961,34.2137586 466.098274,30.4645788 474.159135,30.3227236 L474.633252,30.3185476 L476,30.3185476 Z M310.623169,47.045717 C298.906497,47.045717 291.033119,56.3340921 291.033119,70.1587342 C291.033119,83.9294159 298.906497,93.1827168 310.623169,93.1827168 C317.322605,93.1827168 324.605316,89.6479738 328.274368,84.6926136 L328.482005,84.4051663 L328.482005,56.01033 C324.732561,50.7959614 317.297453,47.045717 310.623169,47.045717 Z M390.806518,45.9670495 C377.642698,45.9670495 372.575161,55.6626081 371.424295,62.4713568 L371.387768,62.6947585 L410.310919,62.6947585 C409.241211,51.2137944 399.616574,45.9670495 390.806518,45.9670495 Z M178.313276,1 C184.593937,1 189.70284,6.04259485 189.70284,12.2417399 C189.70284,18.4408849 184.593937,23.4834798 178.313276,23.4834798 C172.032615,23.4834798 166.923712,18.4408849 166.923712,12.2417399 C166.923712,6.14781753 172.139221,1 178.313276,1 Z" id="Combined-Shape-Copy-3" fill="#FFFFFF"></path>
    </g>
</svg>